<svg width="180" height="180" viewBox="0 0 180 180" fill="none" xmlns="http://www.w3.org/2000/svg">
<path fill-rule="evenodd" clip-rule="evenodd" d="M41.4853 56H74C74.5523 56 75 55.5523 75 55V22.4853L41.4853 56ZM30 59L78 11H146C148.209 11 150 12.7909 150 15V165C150 167.209 148.209 169 146 169H34C31.7909 169 30 167.209 30 165V59ZM36 62V163H144V17H81V55C81 58.866 77.866 62 74 62H36Z" fill="#C3CBCD"/>
<path fill-rule="evenodd" clip-rule="evenodd" d="M70.5563 90.5564C71.7278 89.3848 73.6273 89.3848 74.7989 90.5564L110.154 125.912C111.326 127.083 111.326 128.983 110.154 130.154C108.983 131.326 107.083 131.326 105.912 130.154L70.5563 94.7991C69.3847 93.6275 69.3847 91.728 70.5563 90.5564Z" fill="#C3CBCD"/>
<path fill-rule="evenodd" clip-rule="evenodd" d="M70.5563 130.155C69.3847 128.983 69.3847 127.083 70.5563 125.912L105.912 90.5565C107.083 89.385 108.983 89.385 110.154 90.5565C111.326 91.7281 111.326 93.6276 110.154 94.7992L74.7989 130.155C73.6273 131.326 71.7278 131.326 70.5563 130.155Z" fill="#C3CBCD"/>
</svg>
