<svg width="24" height="24" viewBox="0 0 24 24" fill="none" xmlns="http://www.w3.org/2000/svg">
<path fill-rule="evenodd" clip-rule="evenodd" d="M24 0H0V24H24V0ZM12 1.56329C17.7984 1.56329 22.5 6.26486 22.5 12.0633C22.5 17.3053 18.6609 21.6492 13.6402 22.4372V15.0999H16.087L16.552 12.0638H13.6402V10.0941C13.6402 9.26251 14.048 8.45345 15.3516 8.45345H16.6763V5.86923C16.6763 5.86923 15.4744 5.66392 14.3255 5.66392C11.9273 5.66392 10.3594 7.11845 10.3594 9.74954V12.0633H7.69266V15.0994H10.3594V22.4363C5.33906 21.6478 1.5 17.3039 1.5 12.0633C1.5 6.26486 6.20156 1.56329 12 1.56329Z" fill="white"/>
</svg>
